<svg width="380" height="138" viewBox="0 0 380 138" fill="none" xmlns="http://www.w3.org/2000/svg">
<g filter="url(#filter0_d)">
<path d="M53.8 42.7725C50.9 38.645 46.8 36.4781 41.4 36.4781C35.7 36.4781 31.2 38.5418 28 42.6693C24.7 46.7968 23 52.3689 23 59.2825C23 66.2992 24.7 71.8713 28 75.8956C31.3 80.0231 35.8 82.0869 41.4 82.0869C47 82.0869 51.3 79.8167 54.1 75.3797V81.055H66.6V21H53.8V42.7725ZM45 71.5618C39 71.5618 36 67.5374 36 59.592C36 55.5677 36.8 52.3689 38.4 50.202C40 48.0351 42.2 46.9 45 46.9C51.1 46.9 54.1 51.0275 54.1 59.1793C54.1 67.5374 51 71.5618 45 71.5618ZM90.8 36.4781C84.2 36.4781 78.9 38.5418 75 42.7725C71 46.9 69 52.3689 69 59.3857C69 66.2992 71 71.7681 75.1 75.9988C79.1 80.1263 84.4 82.2932 91 82.2932C96.2 82.2932 100.6 80.9518 104.4 78.3721C108.1 75.7924 110.6 72.1809 111.7 67.6406H99.5C98 70.9426 95.1 72.5936 91 72.5936C88.4 72.5936 86.2 71.7681 84.5 70.2203C82.8 68.6725 81.7 66.4024 81.3 63.41H112.6V60.8303C112.6 53.504 110.6 47.6223 106.7 43.2884C102.7 38.645 97.4 36.4781 90.8 36.4781ZM81.4 54.8454C82.3 49.0669 85.4 46.1777 90.7 46.1777C93.3 46.1777 95.4 46.9 97 48.4478C98.6 49.9956 99.7 52.0594 100.1 54.7422L81.4 54.8454ZM149.9 59.2825C147.5 57.1155 143.7 55.5677 138.7 54.8454L132.4 53.9167C130.3 53.6072 128.7 53.0912 127.7 52.3689C126.7 51.6466 126.2 50.7179 126.2 49.4797C126.2 46.6936 128.4 45.3522 132.7 45.3522C137.8 45.3522 140.4 47.4159 140.5 51.5434H152.4C151.9 41.5343 145.3 36.5813 132.7 36.5813C126.6 36.5813 121.9 37.8195 118.6 40.1928C115.3 42.5661 113.7 45.9713 113.7 50.4084C113.7 57.8378 118.5 62.2749 128 63.7195L133.5 64.6482C136.3 65.061 138.2 65.6801 139.2 66.4024C140.2 67.1247 140.8 68.1566 140.8 69.498C140.8 72.2841 138.4 73.7287 133.7 73.7287C131 73.7287 129 73.2127 127.8 72.2841C126.6 71.3554 125.8 69.7044 125.6 67.3311H113C113.4 72.5936 115.2 76.5147 118.5 78.888C121.8 81.2613 126.7 82.4996 133.4 82.4996C139.8 82.4996 144.8 81.2613 148.3 78.7849C151.8 76.3084 153.6 72.9032 153.6 68.3629C153.5 64.4418 152.3 61.4494 149.9 59.2825ZM167.4 21.4127H155.2V32.557H167.4V21.4127ZM154.9 81.1582H167.7V37.51H154.9V81.1582ZM201.3 43.2884C198.5 38.7482 194.3 36.4781 188.6 36.4781C183.1 36.4781 178.6 38.4386 175.2 42.4629C171.8 46.5904 170.1 51.853 170.1 58.2506C170.1 64.7514 171.8 70.0139 175.3 74.0382C178.7 78.0625 183.3 80.1263 188.8 80.1263C194.2 80.1263 198.3 78.0625 200.9 73.9351V80.2295C200.9 82.9123 200.2 85.0793 198.7 86.5239C197.2 87.9685 195.1 88.794 192.3 88.794C187.2 88.794 184.5 86.7303 184.2 82.706H171.6C171.9 87.659 173.8 91.5801 177.3 94.4693C180.9 97.3586 185.8 98.7 192.1 98.7C198.9 98.7 204.3 97.049 208.1 93.6438C211.9 90.2386 213.8 85.6984 213.8 79.7135V37.4068H201.3V43.2884ZM198.8 66.7119C197.2 68.6725 195 69.6012 192.1 69.6012C189.3 69.6012 187 68.6725 185.5 66.7119C183.9 64.7514 183.1 62.0685 183.1 58.457C183.1 54.8454 183.9 52.0594 185.5 49.9956C187.1 48.0351 189.3 47.0032 192.1 47.0032C195.1 47.0032 197.3 47.9319 198.9 49.8924C200.5 51.853 201.2 54.639 201.2 58.2506C201.2 61.9653 200.4 64.7514 198.8 66.7119ZM243.6 36.4781C238 36.4781 233.6 38.8514 230.3 43.7012V37.51H217.8V81.1582H230.6V56.806C230.6 53.9167 231.4 51.7498 232.9 50.0988C234.4 48.551 236.3 47.7255 238.6 47.7255C243.1 47.7255 245.4 50.202 245.4 55.155V81.1582H258.2V52.5753C258.2 47.4159 256.9 43.4948 254.2 40.7088C251.7 37.9227 248.1 36.4781 243.6 36.4781ZM282.5 36.4781C275.9 36.4781 270.6 38.5418 266.7 42.7725C262.7 46.9 260.7 52.3689 260.7 59.3857C260.7 66.2992 262.7 71.7681 266.8 75.9988C270.8 80.1263 276.1 82.2932 282.7 82.2932C287.9 82.2932 292.3 80.9518 296.1 78.3721C299.8 75.7924 302.3 72.1809 303.4 67.6406H291.3C289.8 70.9426 286.9 72.5936 282.8 72.5936C280.2 72.5936 278 71.7681 276.3 70.2203C274.6 68.6725 273.5 66.4024 273.1 63.41H304.4V60.8303C304.4 53.504 302.4 47.6223 298.5 43.2884C294.3 38.645 289 36.4781 282.5 36.4781ZM273 54.8454C273.9 49.0669 277 46.1777 282.3 46.1777C284.9 46.1777 287 46.9 288.6 48.4478C290.2 49.9956 291.3 52.0594 291.7 54.7422L273 54.8454ZM334.3 49.0669V36.994C332.7 36.8908 331.7 36.7876 331.5 36.7876C325.4 36.7876 321.4 39.6769 319.4 45.5586V37.4068H307V81.055H319.8V60.8303C319.8 52.988 323.5 48.9637 331 48.9637H334.3V49.0669ZM328.6 66.6088V81.1582H343V66.6088H328.6Z" fill="white"/>
</g>
<defs>
<filter id="filter0_d" x="0" y="0" width="380" height="137.7" filterUnits="userSpaceOnUse" color-interpolation-filters="sRGB">
<feFlood flood-opacity="0" result="BackgroundImageFix"/>
<feColorMatrix in="SourceAlpha" type="matrix" values="0 0 0 0 0 0 0 0 0 0 0 0 0 0 0 0 0 0 127 0"/>
<feOffset dx="7" dy="9"/>
<feGaussianBlur stdDeviation="15"/>
<feColorMatrix type="matrix" values="0 0 0 0 0.968627 0 0 0 0 0.968627 0 0 0 0 0.968627 0 0 0 1 0"/>
<feBlend mode="normal" in2="BackgroundImageFix" result="effect1_dropShadow"/>
<feBlend mode="normal" in="SourceGraphic" in2="effect1_dropShadow" result="shape"/>
</filter>
</defs>
</svg>
