<svg width="48" height="48" viewBox="0 0 48 48" fill="none" xmlns="http://www.w3.org/2000/svg">
<path fill-rule="evenodd" clip-rule="evenodd" d="M24 45C35.6 45 45 35.6 45 24C45 12.4 35.6 3 24 3C12.4 3 3 12.4 3 24C3 35.6 12.4 45 24 45ZM24 48C37.3 48 48 37.3 48 24C48 10.7 37.3 0 24 0C10.7 0 0 10.7 0 24C0 37.3 10.7 48 24 48Z" fill="black"/>
<path d="M32.9 27.7C32.6 27.7 31 27.7 28.3 27.7C29.2 26.7 30.2 25.6 31.2 24.4L36.5 18.2V15.3H11.8V18.6H15.1C15.4 18.6 16.9 18.6 19.6 18.6C18.3 20.1 17.3 21.2 16.7 21.9L11.5 28.1V31H36.6V27.7H32.9ZM20.9 27.7C20.6 27.7 19 27.7 16.3 27.7C17.2 26.7 18.2 25.6 19.2 24.4L24.1 18.6H27.1C27.4 18.6 28.9 18.6 31.6 18.6C30.3 20.1 29.3 21.2 28.7 21.9L23.8 27.7H20.9Z" fill="black"/>
</svg>
