<svg width="236" height="47" viewBox="0 0 236 47" fill="none" xmlns="http://www.w3.org/2000/svg">
<path d="M58.188 8.336H64.612C67.1933 8.336 69.1733 9.03267 70.552 10.426C71.9307 11.8047 72.62 13.7187 72.62 16.168C72.62 18.6173 71.9307 20.5387 70.552 21.932C69.1733 23.3107 67.1933 24 64.612 24H58.188V8.336ZM61.906 20.854H64.546C65.8953 20.854 66.9293 20.4653 67.648 19.688C68.3813 18.896 68.748 17.7227 68.748 16.168C68.748 14.6133 68.3813 13.4473 67.648 12.67C66.9293 11.878 65.8953 11.482 64.546 11.482H61.906V20.854ZM84.9513 24H81.4973C81.3213 23.6627 81.226 23.2373 81.2113 22.724C80.4487 23.7507 79.2387 24.264 77.5813 24.264C76.3347 24.264 75.33 23.956 74.5673 23.34C73.8193 22.724 73.4453 21.8733 73.4453 20.788C73.4453 18.676 74.9267 17.4953 77.8893 17.246L79.6713 17.092C80.654 16.9893 81.1453 16.6153 81.1453 15.97C81.1453 15.2073 80.566 14.826 79.4073 14.826C78.7033 14.826 78.2047 14.936 77.9113 15.156C77.6327 15.3613 77.464 15.75 77.4053 16.322H73.9953C74.2007 13.6967 76.012 12.384 79.4293 12.384C82.8027 12.384 84.4893 13.55 84.4893 15.882V21.91C84.4893 22.8633 84.6433 23.56 84.9513 24ZM78.6153 21.954C79.3927 21.954 80.0087 21.756 80.4633 21.36C80.918 20.9493 81.1453 20.3407 81.1453 19.534V18.698C80.94 18.918 80.5587 19.0647 80.0013 19.138L78.5933 19.292C77.4933 19.4093 76.9433 19.864 76.9433 20.656C76.9433 21.052 77.09 21.3673 77.3833 21.602C77.6767 21.8367 78.0873 21.954 78.6153 21.954ZM93.2144 12.384C94.4171 12.384 95.3704 12.7507 96.0744 13.484C96.7931 14.2027 97.1524 15.2293 97.1524 16.564V24H93.7204V17.246C93.7204 15.9553 93.1117 15.31 91.8944 15.31C91.2784 15.31 90.7651 15.5153 90.3544 15.926C89.9437 16.3367 89.7384 16.916 89.7384 17.664V24H86.3064V12.648H89.6504V14.254C90.5304 13.0073 91.7184 12.384 93.2144 12.384ZM102.499 11.35H99.2206V8.446H102.499V11.35ZM102.565 24H99.1326V12.648H102.565V24ZM107.934 11.35H104.656V8.446H107.934V11.35ZM108 24H104.568V12.648H108V24ZM113.436 24H110.004V8.336H113.436V24ZM129.484 20.678H133.224V24H120.134V21.074L125.37 14.914C125.942 14.2393 126.903 13.1393 128.252 11.614C125.553 11.6433 124.043 11.658 123.72 11.658H120.398V8.336H133.092V11.24L127.834 17.422C126.822 18.61 125.854 19.71 124.93 20.722C127.629 20.6927 129.147 20.678 129.484 20.678ZM145.774 24H142.32C142.144 23.6627 142.048 23.2373 142.034 22.724C141.271 23.7507 140.061 24.264 138.404 24.264C137.157 24.264 136.152 23.956 135.39 23.34C134.642 22.724 134.268 21.8733 134.268 20.788C134.268 18.676 135.749 17.4953 138.712 17.246L140.494 17.092C141.476 16.9893 141.968 16.6153 141.968 15.97C141.968 15.2073 141.388 14.826 140.23 14.826C139.526 14.826 139.027 14.936 138.734 15.156C138.455 15.3613 138.286 15.75 138.228 16.322H134.818C135.023 13.6967 136.834 12.384 140.252 12.384C143.625 12.384 145.312 13.55 145.312 15.882V21.91C145.312 22.8633 145.466 23.56 145.774 24ZM139.438 21.954C140.215 21.954 140.831 21.756 141.286 21.36C141.74 20.9493 141.968 20.3407 141.968 19.534V18.698C141.762 18.918 141.381 19.0647 140.824 19.138L139.416 19.292C138.316 19.4093 137.766 19.864 137.766 20.656C137.766 21.052 137.912 21.3673 138.206 21.602C138.499 21.8367 138.91 21.954 139.438 21.954ZM156.855 22.636C155.77 23.7213 154.325 24.264 152.521 24.264C150.717 24.264 149.273 23.7213 148.187 22.636C147.102 21.5507 146.559 20.1133 146.559 18.324C146.559 16.52 147.102 15.0753 148.187 13.99C149.258 12.9193 150.703 12.384 152.521 12.384C154.34 12.384 155.785 12.9193 156.855 13.99C157.926 15.0607 158.461 16.5053 158.461 18.324C158.461 20.128 157.926 21.5653 156.855 22.636ZM152.521 21.514C153.313 21.514 153.922 21.2427 154.347 20.7C154.773 20.1573 154.985 19.3653 154.985 18.324C154.985 17.2827 154.773 16.4907 154.347 15.948C153.922 15.4053 153.313 15.134 152.521 15.134C151.715 15.134 151.099 15.4053 150.673 15.948C150.248 16.4907 150.035 17.2827 150.035 18.324C150.035 19.3653 150.248 20.1573 150.673 20.7C151.099 21.2427 151.715 21.514 152.521 21.514ZM165.622 21.448H168.988V24H159.044V21.844L163.07 16.872C163.583 16.2413 164.052 15.6767 164.478 15.178C164.14 15.1927 163.378 15.2 162.19 15.2H159.088V12.648H168.768V14.804L164.742 19.776C164.228 20.4067 163.759 20.9713 163.334 21.47C163.671 21.4553 164.434 21.448 165.622 21.448ZM181.252 18.654V19.336H172.848C172.965 20.1133 173.251 20.7073 173.706 21.118C174.16 21.5287 174.74 21.734 175.444 21.734C176.558 21.734 177.321 21.3087 177.732 20.458H180.988C180.68 21.6313 180.027 22.5627 179.03 23.252C178.032 23.9267 176.837 24.264 175.444 24.264C173.684 24.264 172.261 23.7213 171.176 22.636C170.09 21.5507 169.548 20.1133 169.548 18.324C169.548 16.52 170.083 15.0827 171.154 14.012C172.21 12.9267 173.625 12.384 175.4 12.384C177.16 12.384 178.582 12.9487 179.668 14.078C180.724 15.222 181.252 16.7473 181.252 18.654ZM175.356 14.914C173.948 14.914 173.119 15.662 172.87 17.158H177.886C177.768 16.454 177.49 15.904 177.05 15.508C176.61 15.112 176.045 14.914 175.356 14.914ZM189.435 12.472C189.494 12.472 189.743 12.4867 190.183 12.516V15.64H189.303C187.294 15.64 186.289 16.6667 186.289 18.72V24H182.857V12.648H186.201V14.76C186.729 13.2347 187.807 12.472 189.435 12.472ZM196.246 24.33C194.457 24.33 193.122 24.022 192.242 23.406C191.377 22.7753 190.893 21.7707 190.79 20.392H194.134C194.193 20.9933 194.384 21.4187 194.706 21.668C195.044 21.9173 195.579 22.042 196.312 22.042C197.588 22.042 198.226 21.6753 198.226 20.942C198.226 20.59 198.087 20.326 197.808 20.15C197.53 19.9593 197.016 19.8053 196.268 19.688L194.794 19.446C192.242 19.05 190.966 17.8913 190.966 15.97C190.966 14.826 191.406 13.946 192.286 13.33C193.166 12.6993 194.428 12.384 196.07 12.384C199.458 12.384 201.218 13.682 201.35 16.278H198.16C198.146 15.2073 197.449 14.672 196.07 14.672C194.912 14.672 194.332 15.0313 194.332 15.75C194.332 16.0727 194.464 16.322 194.728 16.498C194.992 16.674 195.41 16.806 195.982 16.894L197.676 17.136C199.04 17.3413 200.045 17.73 200.69 18.302C201.336 18.874 201.658 19.6587 201.658 20.656C201.658 21.8293 201.182 22.7387 200.228 23.384C199.29 24.0147 197.962 24.33 196.246 24.33ZM214.65 24H210.734L207.808 19.314L206.268 20.898V24H202.902V8.336H206.268V17.136L210.47 12.648H214.408L210.14 17.048L214.65 24ZM222.447 14.276L222.953 12.648H226.495L222.381 24.44C221.867 25.9067 221.215 26.9187 220.423 27.476C219.601 28.048 218.369 28.334 216.727 28.334C216.448 28.334 216.001 28.3193 215.385 28.29V25.65H216.485C217.629 25.65 218.201 25.122 218.201 24.066C218.201 23.5967 218.025 22.8633 217.673 21.866L214.417 12.648H218.113L218.619 14.254C219.352 16.718 219.997 19.1013 220.555 21.404C221.127 19.0133 221.757 16.6373 222.447 14.276Z" fill="black"/>
<path d="M65.57 38.11L66.44 34.88H67.55L65.55 42H64.35L63.45 38.67C63.2767 38.0233 63.07 37.2 62.83 36.2C62.59 37.2 62.3833 38.0233 62.21 38.67L61.31 42H60.11L58.11 34.88H59.22L60.09 38.11C60.39 39.2767 60.61 40.1533 60.75 40.74C61.1367 39.1533 61.3533 38.27 61.4 38.09L62.26 34.88H63.4L64.26 38.09C64.3067 38.27 64.5233 39.1533 64.91 40.74C65.05 40.1533 65.27 39.2767 65.57 38.11ZM78.0582 34.88V35.84H74.0482V37.85H77.6782V38.79H74.0482V41.04H78.0282V42H72.9782V34.88H78.0582ZM87.9855 38.28C88.3921 38.4333 88.6988 38.66 88.9055 38.96C89.1121 39.2533 89.2155 39.5933 89.2155 39.98C89.2155 40.6067 89.0088 41.1 88.5955 41.46C88.1888 41.82 87.6021 42 86.8355 42H83.6255V34.88H86.6955C87.4155 34.88 87.9655 35.05 88.3455 35.39C88.7321 35.73 88.9255 36.1767 88.9255 36.73C88.9255 37.4233 88.6121 37.94 87.9855 38.28ZM86.6255 35.8H84.6955V37.93H86.6255C87.4588 37.93 87.8755 37.56 87.8755 36.82C87.8755 36.5 87.7655 36.25 87.5455 36.07C87.3321 35.89 87.0255 35.8 86.6255 35.8ZM84.6955 41.08H86.7755C87.2155 41.08 87.5521 40.9833 87.7855 40.79C88.0188 40.5967 88.1355 40.32 88.1355 39.96C88.1355 39.2 87.6821 38.82 86.7755 38.82H84.6955V41.08ZM106.242 40.48L107.602 42H106.292L105.652 41.28C105.066 41.8667 104.322 42.16 103.422 42.16C102.722 42.16 102.169 41.9667 101.762 41.58C101.349 41.1867 101.142 40.7067 101.142 40.14C101.142 39.68 101.269 39.29 101.522 38.97C101.782 38.6433 102.192 38.3267 102.752 38.02C102.459 37.68 102.249 37.3833 102.122 37.13C102.002 36.8767 101.942 36.6167 101.942 36.35C101.942 35.89 102.109 35.5033 102.442 35.19C102.776 34.8767 103.229 34.72 103.802 34.72C104.336 34.72 104.776 34.8633 105.122 35.15C105.476 35.4433 105.652 35.83 105.652 36.31C105.652 37.0367 105.169 37.67 104.202 38.21L105.562 39.73C105.702 39.3367 105.776 38.9367 105.782 38.53H106.742C106.722 39.23 106.556 39.88 106.242 40.48ZM104.422 35.79C104.176 35.55 103.866 35.4967 103.492 35.63C103.119 35.7633 102.946 36.0033 102.972 36.35C102.972 36.6767 103.199 37.0933 103.652 37.6C104.326 37.2267 104.662 36.81 104.662 36.35C104.662 36.13 104.582 35.9433 104.422 35.79ZM103.502 41.26C104.142 41.26 104.656 41.04 105.042 40.6L103.302 38.64C102.916 38.8467 102.636 39.06 102.462 39.28C102.289 39.4933 102.202 39.7567 102.202 40.07C102.202 40.4033 102.322 40.6867 102.562 40.92C102.802 41.1467 103.116 41.26 103.502 41.26ZM124.542 41.42C124.036 41.9067 123.329 42.15 122.422 42.15C121.516 42.15 120.809 41.9067 120.302 41.42C119.796 40.9267 119.542 40.2333 119.542 39.34V34.88H120.612V39.35C120.612 39.9633 120.766 40.4267 121.072 40.74C121.386 41.0533 121.836 41.21 122.422 41.21C123.009 41.21 123.456 41.0533 123.762 40.74C124.076 40.4267 124.232 39.9633 124.232 39.35V34.88H125.302V39.34C125.302 40.2333 125.049 40.9267 124.542 41.42ZM132.209 42H131.139V34.88H132.209V42ZM144.875 34.88H147.415C148.515 34.88 149.382 35.1967 150.015 35.83C150.635 36.4633 150.945 37.3333 150.945 38.44C150.945 39.5467 150.635 40.4167 150.015 41.05C149.382 41.6833 148.515 42 147.415 42H144.875V34.88ZM145.945 41.06H147.405C148.185 41.06 148.782 40.8333 149.195 40.38C149.615 39.9267 149.825 39.28 149.825 38.44C149.825 37.6 149.615 36.9533 149.195 36.5C148.782 36.0467 148.185 35.82 147.405 35.82H145.945V41.06ZM161.667 34.88V35.84H157.657V37.85H161.287V38.79H157.657V41.04H161.637V42H156.587V34.88H161.667ZM169.855 42.16C168.915 42.16 168.181 41.9467 167.655 41.52C167.135 41.0933 166.871 40.47 166.865 39.65H167.935C167.955 40.7167 168.601 41.25 169.875 41.25C170.401 41.25 170.805 41.15 171.085 40.95C171.371 40.7433 171.515 40.4467 171.515 40.06C171.515 39.7467 171.398 39.5067 171.165 39.34C170.931 39.1667 170.511 39.0133 169.905 38.88L169.295 38.75C168.561 38.6033 168.008 38.3633 167.635 38.03C167.261 37.6967 167.075 37.2367 167.075 36.65C167.075 36.0633 167.301 35.5967 167.755 35.25C168.208 34.8967 168.821 34.72 169.595 34.72C170.528 34.72 171.228 34.92 171.695 35.32C172.168 35.72 172.411 36.27 172.425 36.97H171.365C171.331 36.51 171.178 36.1733 170.905 35.96C170.638 35.74 170.205 35.63 169.605 35.63C169.138 35.63 168.781 35.7167 168.535 35.89C168.288 36.0633 168.165 36.31 168.165 36.63C168.165 36.9567 168.275 37.2033 168.495 37.37C168.715 37.55 169.121 37.7033 169.715 37.83L170.335 37.96C171.148 38.1333 171.731 38.3833 172.085 38.71C172.445 39.0367 172.625 39.4767 172.625 40.03C172.625 40.69 172.378 41.21 171.885 41.59C171.398 41.97 170.721 42.16 169.855 42.16ZM179.244 42H178.174V34.88H179.244V42ZM188.499 39.17V38.26H191.599V42H190.779L190.589 41.05C190.055 41.79 189.282 42.16 188.269 42.16C187.242 42.16 186.425 41.8167 185.819 41.13C185.199 40.45 184.889 39.5533 184.889 38.44C184.889 37.3133 185.202 36.4133 185.829 35.74C186.449 35.06 187.282 34.72 188.329 34.72C189.202 34.72 189.925 34.9467 190.499 35.4C191.065 35.86 191.405 36.47 191.519 37.23H190.419C190.319 36.75 190.079 36.37 189.699 36.09C189.325 35.81 188.872 35.67 188.339 35.67C187.625 35.67 187.059 35.92 186.639 36.42C186.212 36.9133 185.999 37.5867 185.999 38.44C185.999 39.2933 186.212 39.9667 186.639 40.46C187.072 40.96 187.645 41.21 188.359 41.21C188.979 41.21 189.502 41.0167 189.929 40.63C190.355 40.25 190.579 39.7633 190.599 39.17H188.499ZM202.218 37.04V34.88H203.248V42H202.018L199.828 38.55C199.188 37.55 198.724 36.7867 198.438 36.26C198.464 37.0533 198.478 38.2467 198.478 39.84V42H197.438V34.88H198.668L200.868 38.33C201.461 39.27 201.924 40.0367 202.258 40.63C202.231 39.83 202.218 38.6333 202.218 37.04ZM214.278 34.88V35.84H210.268V37.85H213.898V38.79H210.268V41.04H214.248V42H209.198V34.88H214.278ZM225.225 40.02L225.295 41.13C225.329 41.4967 225.409 41.7867 225.535 42H224.435C224.302 41.8067 224.232 41.5033 224.225 41.09L224.195 40.33C224.175 39.87 224.072 39.5467 223.885 39.36C223.699 39.1667 223.399 39.07 222.985 39.07H220.915V42H219.845V34.88H222.955C223.715 34.88 224.312 35.0567 224.745 35.41C225.185 35.7567 225.405 36.2367 225.405 36.85C225.405 37.2833 225.299 37.65 225.085 37.95C224.879 38.2433 224.585 38.45 224.205 38.57C224.552 38.67 224.805 38.84 224.965 39.08C225.125 39.3133 225.212 39.6267 225.225 40.02ZM220.915 38.18H222.975C223.389 38.18 223.712 38.0733 223.945 37.86C224.185 37.6467 224.305 37.3433 224.305 36.95C224.305 36.57 224.182 36.2833 223.935 36.09C223.695 35.8967 223.349 35.8 222.895 35.8H220.915V38.18Z" fill="black"/>
<path fill-rule="evenodd" clip-rule="evenodd" d="M23 44.125C34.1167 44.125 43.125 35.1167 43.125 24C43.125 12.8833 34.1167 3.875 23 3.875C11.8833 3.875 2.875 12.8833 2.875 24C2.875 35.1167 11.8833 44.125 23 44.125ZM23 47C35.7458 47 46 36.7458 46 24C46 11.2542 35.7458 1 23 1C10.2542 1 0 11.2542 0 24C0 36.7458 10.2542 47 23 47Z" fill="black"/>
<path d="M31.5292 27.5458C31.2417 27.5458 29.7083 27.5458 27.1208 27.5458C27.9833 26.5875 28.9417 25.5333 29.9 24.3833L34.9792 18.4416V15.6625H11.3083V18.825H14.4708C14.7583 18.825 16.1958 18.825 18.7833 18.825C17.5375 20.2625 16.5791 21.3166 16.0041 21.9875L11.0208 27.9291V30.7083H35.075V27.5458H31.5292ZM20.0291 27.5458C19.7416 27.5458 18.2083 27.5458 15.6208 27.5458C16.4833 26.5875 17.4416 25.5333 18.4 24.3833L23.0958 18.825H25.9708C26.2583 18.825 27.6958 18.825 30.2833 18.825C29.0375 20.2625 28.0791 21.3166 27.5041 21.9875L22.8083 27.5458H20.0291Z" fill="black"/>
</svg>
