<svg width="179" height="46" viewBox="0 0 179 46" fill="none" xmlns="http://www.w3.org/2000/svg">
<path d="M1.188 8.336H7.612C10.1933 8.336 12.1733 9.03267 13.552 10.426C14.9307 11.8047 15.62 13.7187 15.62 16.168C15.62 18.6173 14.9307 20.5387 13.552 21.932C12.1733 23.3107 10.1933 24 7.612 24H1.188V8.336ZM4.906 20.854H7.546C8.89533 20.854 9.92933 20.4653 10.648 19.688C11.3813 18.896 11.748 17.7227 11.748 16.168C11.748 14.6133 11.3813 13.4473 10.648 12.67C9.92933 11.878 8.89533 11.482 7.546 11.482H4.906V20.854ZM27.9513 24H24.4973C24.3213 23.6627 24.226 23.2373 24.2113 22.724C23.4487 23.7507 22.2387 24.264 20.5813 24.264C19.3347 24.264 18.33 23.956 17.5673 23.34C16.8193 22.724 16.4453 21.8733 16.4453 20.788C16.4453 18.676 17.9267 17.4953 20.8893 17.246L22.6713 17.092C23.654 16.9893 24.1453 16.6153 24.1453 15.97C24.1453 15.2073 23.566 14.826 22.4073 14.826C21.7033 14.826 21.2047 14.936 20.9113 15.156C20.6327 15.3613 20.464 15.75 20.4053 16.322H16.9953C17.2007 13.6967 19.012 12.384 22.4293 12.384C25.8027 12.384 27.4893 13.55 27.4893 15.882V21.91C27.4893 22.8633 27.6433 23.56 27.9513 24ZM21.6153 21.954C22.3927 21.954 23.0087 21.756 23.4633 21.36C23.918 20.9493 24.1453 20.3407 24.1453 19.534V18.698C23.94 18.918 23.5587 19.0647 23.0013 19.138L21.5933 19.292C20.4933 19.4093 19.9433 19.864 19.9433 20.656C19.9433 21.052 20.09 21.3673 20.3833 21.602C20.6767 21.8367 21.0873 21.954 21.6153 21.954ZM36.2144 12.384C37.4171 12.384 38.3704 12.7507 39.0744 13.484C39.7931 14.2027 40.1524 15.2293 40.1524 16.564V24H36.7204V17.246C36.7204 15.9553 36.1117 15.31 34.8944 15.31C34.2784 15.31 33.7651 15.5153 33.3544 15.926C32.9437 16.3367 32.7384 16.916 32.7384 17.664V24H29.3064V12.648H32.6504V14.254C33.5304 13.0073 34.7184 12.384 36.2144 12.384ZM45.4986 11.35H42.2206V8.446H45.4986V11.35ZM45.5646 24H42.1326V12.648H45.5646V24ZM50.9341 11.35H47.6561V8.446H50.9341V11.35ZM51.0001 24H47.5681V12.648H51.0001V24ZM56.4357 24H53.0037V8.336H56.4357V24ZM72.484 20.678H76.224V24H63.134V21.074L68.37 14.914C68.942 14.2393 69.9027 13.1393 71.252 11.614C68.5533 11.6433 67.0427 11.658 66.72 11.658H63.398V8.336H76.092V11.24L70.834 17.422C69.822 18.61 68.854 19.71 67.93 20.722C70.6287 20.6927 72.1467 20.678 72.484 20.678ZM88.7736 24H85.3196C85.1436 23.6627 85.0483 23.2373 85.0336 22.724C84.2709 23.7507 83.0609 24.264 81.4036 24.264C80.1569 24.264 79.1523 23.956 78.3896 23.34C77.6416 22.724 77.2676 21.8733 77.2676 20.788C77.2676 18.676 78.7489 17.4953 81.7116 17.246L83.4936 17.092C84.4763 16.9893 84.9676 16.6153 84.9676 15.97C84.9676 15.2073 84.3883 14.826 83.2296 14.826C82.5256 14.826 82.0269 14.936 81.7336 15.156C81.4549 15.3613 81.2863 15.75 81.2276 16.322H77.8176C78.0229 13.6967 79.8343 12.384 83.2516 12.384C86.6249 12.384 88.3116 13.55 88.3116 15.882V21.91C88.3116 22.8633 88.4656 23.56 88.7736 24ZM82.4376 21.954C83.2149 21.954 83.8309 21.756 84.2856 21.36C84.7403 20.9493 84.9676 20.3407 84.9676 19.534V18.698C84.7623 18.918 84.3809 19.0647 83.8236 19.138L82.4156 19.292C81.3156 19.4093 80.7656 19.864 80.7656 20.656C80.7656 21.052 80.9123 21.3673 81.2056 21.602C81.4989 21.8367 81.9096 21.954 82.4376 21.954ZM99.8553 22.636C98.7699 23.7213 97.3253 24.264 95.5213 24.264C93.7173 24.264 92.2726 23.7213 91.1873 22.636C90.1019 21.5507 89.5593 20.1133 89.5593 18.324C89.5593 16.52 90.1019 15.0753 91.1873 13.99C92.2579 12.9193 93.7026 12.384 95.5213 12.384C97.3399 12.384 98.7846 12.9193 99.8553 13.99C100.926 15.0607 101.461 16.5053 101.461 18.324C101.461 20.128 100.926 21.5653 99.8553 22.636ZM95.5213 21.514C96.3133 21.514 96.9219 21.2427 97.3473 20.7C97.7726 20.1573 97.9853 19.3653 97.9853 18.324C97.9853 17.2827 97.7726 16.4907 97.3473 15.948C96.9219 15.4053 96.3133 15.134 95.5213 15.134C94.7146 15.134 94.0986 15.4053 93.6733 15.948C93.2479 16.4907 93.0353 17.2827 93.0353 18.324C93.0353 19.3653 93.2479 20.1573 93.6733 20.7C94.0986 21.2427 94.7146 21.514 95.5213 21.514ZM108.622 21.448H111.988V24H102.044V21.844L106.07 16.872C106.583 16.2413 107.052 15.6767 107.478 15.178C107.14 15.1927 106.378 15.2 105.19 15.2H102.088V12.648H111.768V14.804L107.742 19.776C107.228 20.4067 106.759 20.9713 106.334 21.47C106.671 21.4553 107.434 21.448 108.622 21.448ZM124.252 18.654V19.336H115.848C115.965 20.1133 116.251 20.7073 116.706 21.118C117.16 21.5287 117.74 21.734 118.444 21.734C119.558 21.734 120.321 21.3087 120.732 20.458H123.988C123.68 21.6313 123.027 22.5627 122.03 23.252C121.032 23.9267 119.837 24.264 118.444 24.264C116.684 24.264 115.261 23.7213 114.176 22.636C113.09 21.5507 112.548 20.1133 112.548 18.324C112.548 16.52 113.083 15.0827 114.154 14.012C115.21 12.9267 116.625 12.384 118.4 12.384C120.16 12.384 121.582 12.9487 122.668 14.078C123.724 15.222 124.252 16.7473 124.252 18.654ZM118.356 14.914C116.948 14.914 116.119 15.662 115.87 17.158H120.886C120.768 16.454 120.49 15.904 120.05 15.508C119.61 15.112 119.045 14.914 118.356 14.914ZM132.435 12.472C132.494 12.472 132.743 12.4867 133.183 12.516V15.64H132.303C130.294 15.64 129.289 16.6667 129.289 18.72V24H125.857V12.648H129.201V14.76C129.729 13.2347 130.807 12.472 132.435 12.472ZM139.246 24.33C137.457 24.33 136.122 24.022 135.242 23.406C134.377 22.7753 133.893 21.7707 133.79 20.392H137.134C137.193 20.9933 137.384 21.4187 137.706 21.668C138.044 21.9173 138.579 22.042 139.312 22.042C140.588 22.042 141.226 21.6753 141.226 20.942C141.226 20.59 141.087 20.326 140.808 20.15C140.53 19.9593 140.016 19.8053 139.268 19.688L137.794 19.446C135.242 19.05 133.966 17.8913 133.966 15.97C133.966 14.826 134.406 13.946 135.286 13.33C136.166 12.6993 137.428 12.384 139.07 12.384C142.458 12.384 144.218 13.682 144.35 16.278H141.16C141.146 15.2073 140.449 14.672 139.07 14.672C137.912 14.672 137.332 15.0313 137.332 15.75C137.332 16.0727 137.464 16.322 137.728 16.498C137.992 16.674 138.41 16.806 138.982 16.894L140.676 17.136C142.04 17.3413 143.045 17.73 143.69 18.302C144.336 18.874 144.658 19.6587 144.658 20.656C144.658 21.8293 144.182 22.7387 143.228 23.384C142.29 24.0147 140.962 24.33 139.246 24.33ZM157.65 24H153.734L150.808 19.314L149.268 20.898V24H145.902V8.336H149.268V17.136L153.47 12.648H157.408L153.14 17.048L157.65 24ZM165.447 14.276L165.953 12.648H169.495L165.381 24.44C164.867 25.9067 164.215 26.9187 163.423 27.476C162.601 28.048 161.369 28.334 159.727 28.334C159.448 28.334 159.001 28.3193 158.385 28.29V25.65H159.485C160.629 25.65 161.201 25.122 161.201 24.066C161.201 23.5967 161.025 22.8633 160.673 21.866L157.417 12.648H161.113L161.619 14.254C162.352 16.718 162.997 19.1013 163.555 21.404C164.127 19.0133 164.757 16.6373 165.447 14.276Z" fill="black"/>
<path d="M8.57 38.11L9.44 34.88H10.55L8.55 42H7.35L6.45 38.67C6.27667 38.0233 6.07 37.2 5.83 36.2C5.59 37.2 5.38333 38.0233 5.21 38.67L4.31 42H3.11L1.11 34.88H2.22L3.09 38.11C3.39 39.2767 3.61 40.1533 3.75 40.74C4.13667 39.1533 4.35333 38.27 4.4 38.09L5.26 34.88H6.4L7.26 38.09C7.30667 38.27 7.52333 39.1533 7.91 40.74C8.05 40.1533 8.27 39.2767 8.57 38.11ZM21.0582 34.88V35.84H17.0482V37.85H20.6782V38.79H17.0482V41.04H21.0282V42H15.9782V34.88H21.0582ZM30.9855 38.28C31.3921 38.4333 31.6988 38.66 31.9055 38.96C32.1121 39.2533 32.2155 39.5933 32.2155 39.98C32.2155 40.6067 32.0088 41.1 31.5955 41.46C31.1888 41.82 30.6021 42 29.8355 42H26.6255V34.88H29.6955C30.4155 34.88 30.9655 35.05 31.3455 35.39C31.7321 35.73 31.9255 36.1767 31.9255 36.73C31.9255 37.4233 31.6121 37.94 30.9855 38.28ZM29.6255 35.8H27.6955V37.93H29.6255C30.4588 37.93 30.8755 37.56 30.8755 36.82C30.8755 36.5 30.7655 36.25 30.5455 36.07C30.3321 35.89 30.0255 35.8 29.6255 35.8ZM27.6955 41.08H29.7755C30.2155 41.08 30.5521 40.9833 30.7855 40.79C31.0188 40.5967 31.1355 40.32 31.1355 39.96C31.1355 39.2 30.6821 38.82 29.7755 38.82H27.6955V41.08ZM49.2425 40.48L50.6025 42H49.2925L48.6525 41.28C48.0658 41.8667 47.3225 42.16 46.4225 42.16C45.7225 42.16 45.1692 41.9667 44.7625 41.58C44.3492 41.1867 44.1425 40.7067 44.1425 40.14C44.1425 39.68 44.2692 39.29 44.5225 38.97C44.7825 38.6433 45.1925 38.3267 45.7525 38.02C45.4592 37.68 45.2492 37.3833 45.1225 37.13C45.0025 36.8767 44.9425 36.6167 44.9425 36.35C44.9425 35.89 45.1092 35.5033 45.4425 35.19C45.7758 34.8767 46.2292 34.72 46.8025 34.72C47.3358 34.72 47.7758 34.8633 48.1225 35.15C48.4758 35.4433 48.6525 35.83 48.6525 36.31C48.6525 37.0367 48.1692 37.67 47.2025 38.21L48.5625 39.73C48.7025 39.3367 48.7758 38.9367 48.7825 38.53H49.7425C49.7225 39.23 49.5558 39.88 49.2425 40.48ZM47.4225 35.79C47.1758 35.55 46.8658 35.4967 46.4925 35.63C46.1192 35.7633 45.9458 36.0033 45.9725 36.35C45.9725 36.6767 46.1992 37.0933 46.6525 37.6C47.3258 37.2267 47.6625 36.81 47.6625 36.35C47.6625 36.13 47.5825 35.9433 47.4225 35.79ZM46.5025 41.26C47.1425 41.26 47.6558 41.04 48.0425 40.6L46.3025 38.64C45.9158 38.8467 45.6358 39.06 45.4625 39.28C45.2892 39.4933 45.2025 39.7567 45.2025 40.07C45.2025 40.4033 45.3225 40.6867 45.5625 40.92C45.8025 41.1467 46.1158 41.26 46.5025 41.26ZM67.5423 41.42C67.0356 41.9067 66.3289 42.15 65.4223 42.15C64.5156 42.15 63.8089 41.9067 63.3023 41.42C62.7956 40.9267 62.5423 40.2333 62.5423 39.34V34.88H63.6123V39.35C63.6123 39.9633 63.7656 40.4267 64.0723 40.74C64.3856 41.0533 64.8356 41.21 65.4223 41.21C66.0089 41.21 66.4556 41.0533 66.7623 40.74C67.0756 40.4267 67.2323 39.9633 67.2323 39.35V34.88H68.3023V39.34C68.3023 40.2333 68.0489 40.9267 67.5423 41.42ZM75.2091 42H74.1391V34.88H75.2091V42ZM87.8751 34.88H90.4151C91.5151 34.88 92.3817 35.1967 93.0151 35.83C93.6351 36.4633 93.9451 37.3333 93.9451 38.44C93.9451 39.5467 93.6351 40.4167 93.0151 41.05C92.3817 41.6833 91.5151 42 90.4151 42H87.8751V34.88ZM88.9451 41.06H90.4051C91.1851 41.06 91.7817 40.8333 92.1951 40.38C92.6151 39.9267 92.8251 39.28 92.8251 38.44C92.8251 37.6 92.6151 36.9533 92.1951 36.5C91.7817 36.0467 91.1851 35.82 90.4051 35.82H88.9451V41.06ZM104.667 34.88V35.84H100.657V37.85H104.287V38.79H100.657V41.04H104.637V42H99.5868V34.88H104.667ZM112.855 42.16C111.915 42.16 111.181 41.9467 110.655 41.52C110.135 41.0933 109.871 40.47 109.865 39.65H110.935C110.955 40.7167 111.601 41.25 112.875 41.25C113.401 41.25 113.805 41.15 114.085 40.95C114.371 40.7433 114.515 40.4467 114.515 40.06C114.515 39.7467 114.398 39.5067 114.165 39.34C113.931 39.1667 113.511 39.0133 112.905 38.88L112.295 38.75C111.561 38.6033 111.008 38.3633 110.635 38.03C110.261 37.6967 110.075 37.2367 110.075 36.65C110.075 36.0633 110.301 35.5967 110.755 35.25C111.208 34.8967 111.821 34.72 112.595 34.72C113.528 34.72 114.228 34.92 114.695 35.32C115.168 35.72 115.411 36.27 115.425 36.97H114.365C114.331 36.51 114.178 36.1733 113.905 35.96C113.638 35.74 113.205 35.63 112.605 35.63C112.138 35.63 111.781 35.7167 111.535 35.89C111.288 36.0633 111.165 36.31 111.165 36.63C111.165 36.9567 111.275 37.2033 111.495 37.37C111.715 37.55 112.121 37.7033 112.715 37.83L113.335 37.96C114.148 38.1333 114.731 38.3833 115.085 38.71C115.445 39.0367 115.625 39.4767 115.625 40.03C115.625 40.69 115.378 41.21 114.885 41.59C114.398 41.97 113.721 42.16 112.855 42.16ZM122.244 42H121.174V34.88H122.244V42ZM131.499 39.17V38.26H134.599V42H133.779L133.589 41.05C133.055 41.79 132.282 42.16 131.269 42.16C130.242 42.16 129.425 41.8167 128.819 41.13C128.199 40.45 127.889 39.5533 127.889 38.44C127.889 37.3133 128.202 36.4133 128.829 35.74C129.449 35.06 130.282 34.72 131.329 34.72C132.202 34.72 132.925 34.9467 133.499 35.4C134.065 35.86 134.405 36.47 134.519 37.23H133.419C133.319 36.75 133.079 36.37 132.699 36.09C132.325 35.81 131.872 35.67 131.339 35.67C130.625 35.67 130.059 35.92 129.639 36.42C129.212 36.9133 128.999 37.5867 128.999 38.44C128.999 39.2933 129.212 39.9667 129.639 40.46C130.072 40.96 130.645 41.21 131.359 41.21C131.979 41.21 132.502 41.0167 132.929 40.63C133.355 40.25 133.579 39.7633 133.599 39.17H131.499ZM145.218 37.04V34.88H146.248V42H145.018L142.828 38.55C142.188 37.55 141.724 36.7867 141.438 36.26C141.464 37.0533 141.478 38.2467 141.478 39.84V42H140.438V34.88H141.668L143.868 38.33C144.461 39.27 144.924 40.0367 145.258 40.63C145.231 39.83 145.218 38.6333 145.218 37.04ZM157.278 34.88V35.84H153.268V37.85H156.898V38.79H153.268V41.04H157.248V42H152.198V34.88H157.278ZM168.225 40.02L168.295 41.13C168.329 41.4967 168.409 41.7867 168.535 42H167.435C167.302 41.8067 167.232 41.5033 167.225 41.09L167.195 40.33C167.175 39.87 167.072 39.5467 166.885 39.36C166.699 39.1667 166.399 39.07 165.985 39.07H163.915V42H162.845V34.88H165.955C166.715 34.88 167.312 35.0567 167.745 35.41C168.185 35.7567 168.405 36.2367 168.405 36.85C168.405 37.2833 168.299 37.65 168.085 37.95C167.879 38.2433 167.585 38.45 167.205 38.57C167.552 38.67 167.805 38.84 167.965 39.08C168.125 39.3133 168.212 39.6267 168.225 40.02ZM163.915 38.18H165.975C166.389 38.18 166.712 38.0733 166.945 37.86C167.185 37.6467 167.305 37.3433 167.305 36.95C167.305 36.57 167.182 36.2833 166.935 36.09C166.695 35.8967 166.349 35.8 165.895 35.8H163.915V38.18Z" fill="black"/>
</svg>
